<svg width="25" height="24" viewBox="0 0 25 24" fill="none" xmlns="http://www.w3.org/2000/svg">
<path d="M18.2083 9.31002C18.1155 9.21732 18.0053 9.14377 17.8839 9.09359C17.7626 9.04341 17.6325 9.01758 17.5011 9.01758C17.3698 9.01758 17.2397 9.04341 17.1183 9.09359C16.997 9.14377 16.8868 9.21732 16.794 9.31002L12.9021 13.19L9.01031 9.31002C8.82277 9.12304 8.5684 9.018 8.30317 9.018C8.03793 9.018 7.78356 9.12304 7.59601 9.31002C7.40847 9.497 7.30311 9.7506 7.30311 10.015C7.30311 10.2794 7.40847 10.533 7.59601 10.72L12.2 15.31C12.2928 15.4027 12.403 15.4763 12.5244 15.5265C12.6457 15.5766 12.7758 15.6025 12.9072 15.6025C13.0385 15.6025 13.1686 15.5766 13.2899 15.5265C13.4113 15.4763 13.5215 15.4027 13.6143 15.31L18.2183 10.72C18.5995 10.34 18.5995 9.70002 18.2083 9.31002Z" fill="#212121"/>
</svg>
