<svg width="26" height="25" viewBox="0 0 26 25" fill="none" xmlns="http://www.w3.org/2000/svg">
<path d="M7.72126 15.7119C7.81415 15.8042 7.92435 15.8773 8.04553 15.927C8.16671 15.9767 8.2965 16.0019 8.42746 16.0014C8.55843 16.0009 8.68801 15.9745 8.80877 15.9238C8.92953 15.8731 9.03912 15.7991 9.13124 15.706L12.9951 11.81L16.8912 15.6738C17.0789 15.86 17.333 15.964 17.5974 15.9629C17.8618 15.9618 18.115 15.8557 18.3012 15.6679C18.4874 15.4802 18.5914 15.2262 18.5903 14.9617C18.5892 14.6973 18.4831 14.4442 18.2953 14.258L13.6863 9.68706C13.5934 9.59475 13.4832 9.52165 13.362 9.47198C13.2408 9.4223 13.111 9.39701 12.9801 9.39755C12.8491 9.3981 12.7195 9.42446 12.5988 9.47515C12.478 9.52583 12.3684 9.59983 12.2763 9.69292L7.7054 14.3019C7.32698 14.6835 7.32964 15.3235 7.72126 15.7119Z" fill="#212121"/>
</svg>
