<svg width="24" height="24" viewBox="0 0 24 24" fill="none" xmlns="http://www.w3.org/2000/svg">
<path d="M17.8177 8.66667C19.3803 8.66667 20.6511 7.39592 20.6511 5.83333C20.6511 4.27075 19.3803 3 17.8177 3C16.2552 3 14.9844 4.27075 14.9844 5.83333C14.9844 7.39592 16.2552 8.66667 17.8177 8.66667ZM17.8177 4.41667C18.599 4.41667 19.2344 5.05204 19.2344 5.83333C19.2344 6.61462 18.599 7.25 17.8177 7.25C17.0365 7.25 16.4011 6.61462 16.4011 5.83333C16.4011 5.05204 17.0365 4.41667 17.8177 4.41667ZM20.1354 14.5083L20.1319 14.4948V14.4941L19.0177 9.90908C18.6366 10.021 18.235 10.084 17.8177 10.084C17.7441 10.084 17.6725 10.077 17.5996 10.0727L18.7591 14.8433C18.7605 14.8483 18.7641 14.8518 18.7648 14.8575H18.762C18.82 15.0757 18.7768 15.2931 18.6422 15.4709C18.5062 15.6515 18.3051 15.7507 18.0784 15.7507H6.12529C5.90924 15.7507 5.70808 15.6537 5.5742 15.4879C5.4382 15.3179 5.3872 15.0998 5.42758 14.9128L7.09358 8.45487C7.62199 6.07771 9.70166 4.41737 12.1511 4.41737C12.6986 4.41737 13.2299 4.51087 13.7321 4.67308C13.8652 4.20487 14.0749 3.76996 14.3497 3.38321C13.6563 3.13671 12.9154 3.00142 12.1511 3.00142C9.03299 3 6.38454 5.1165 5.71658 8.12337L4.05058 14.5827C3.91104 15.2131 4.06333 15.8655 4.4692 16.3733C4.87508 16.8777 5.47929 17.1667 6.12529 17.1667H8.68095C9.01033 18.781 10.4405 20 12.1511 20C13.8617 20 15.2918 18.781 15.6212 17.1667H18.0791C18.7499 17.1667 19.3662 16.86 19.772 16.3266C20.1659 15.8074 20.2955 15.1507 20.1361 14.5203C20.1354 14.5161 20.1361 14.5125 20.1361 14.5083H20.1354ZM12.1511 18.5833C11.2288 18.5833 10.4497 17.989 10.1564 17.1667H14.145C13.8518 17.989 13.0726 18.5833 12.1504 18.5833H12.1511Z" fill="url(#paint0_linear_118_345)"/>
<defs>
<linearGradient id="paint0_linear_118_345" x1="12.3255" y1="3" x2="12.3255" y2="20" gradientUnits="userSpaceOnUse">
<stop stop-color="#4A5BDC"/>
<stop offset="1" stop-color="#1D2A8E"/>
</linearGradient>
</defs>
</svg>
