<svg width="24" height="24" viewBox="0 0 24 24" fill="none" xmlns="http://www.w3.org/2000/svg">
<path d="M18.3725 4C18.955 4 19.5135 4.23137 19.9254 4.64321C20.3372 5.05506 20.5686 5.61364 20.5686 6.19607V9.33333C20.5686 9.58294 20.4694 9.82234 20.2929 9.99884C20.1164 10.1753 19.877 10.2745 19.6274 10.2745C19.3778 10.2745 19.1384 10.1753 18.9619 9.99884C18.7854 9.82234 18.6863 9.58294 18.6863 9.33333V6.19607C18.6863 6.0229 18.5457 5.88235 18.3725 5.88235H5.19605C5.11285 5.88235 5.03305 5.9154 4.97422 5.97424C4.91538 6.03307 4.88233 6.11287 4.88233 6.19607V9.33333C4.88233 9.58294 4.78317 9.82234 4.60666 9.99884C4.43016 10.1753 4.19077 10.2745 3.94115 10.2745C3.69154 10.2745 3.45214 10.1753 3.27564 9.99884C3.09913 9.82234 2.99998 9.58294 2.99998 9.33333V6.19607C2.99998 5.61364 3.23135 5.05506 3.64319 4.64321C4.05504 4.23137 4.61362 4 5.19605 4H18.3725Z" fill="url(#paint0_linear_118_320)"/>
<path d="M12.7254 11.9197V19.0588C12.7254 19.3084 12.6262 19.5478 12.4497 19.7243C12.2732 19.9008 12.0338 20 11.7842 20C11.5346 20 11.2952 19.9008 11.1187 19.7243C10.9422 19.5478 10.843 19.3084 10.843 19.0588V11.9197L8.37087 14.3906C8.28353 14.4779 8.17984 14.5472 8.06572 14.5945C7.9516 14.6418 7.82929 14.6661 7.70577 14.6661C7.58225 14.6661 7.45994 14.6418 7.34582 14.5945C7.2317 14.5472 7.12801 14.4779 7.04067 14.3906C6.95333 14.3032 6.88405 14.1996 6.83678 14.0854C6.78951 13.9713 6.76518 13.849 6.76518 13.7255C6.76518 13.602 6.78951 13.4797 6.83678 13.3655C6.88405 13.2514 6.95333 13.1477 7.04067 13.0604L11.1191 8.98196C11.2956 8.80571 11.5348 8.70671 11.7842 8.70671C12.0336 8.70671 12.2728 8.80571 12.4493 8.98196L16.5277 13.0604C16.6151 13.1477 16.6844 13.2514 16.7316 13.3655C16.7789 13.4797 16.8032 13.602 16.8032 13.7255C16.8032 13.849 16.7789 13.9713 16.7316 14.0854C16.6844 14.1996 16.6151 14.3032 16.5277 14.3906C16.4404 14.4779 16.3367 14.5472 16.2226 14.5945C16.1085 14.6418 15.9862 14.6661 15.8626 14.6661C15.7391 14.6661 15.6168 14.6418 15.5027 14.5945C15.3886 14.5472 15.2849 14.4779 15.1975 14.3906L12.7254 11.9197Z" fill="url(#paint1_linear_118_320)"/>
<defs>
<linearGradient id="paint0_linear_118_320" x1="11.7843" y1="10.2745" x2="11.7843" y2="4" gradientUnits="userSpaceOnUse">
<stop stop-color="#4A5BDC"/>
<stop offset="1" stop-color="#1D2A8E"/>
</linearGradient>
<linearGradient id="paint1_linear_118_320" x1="11.7842" y1="20" x2="11.7842" y2="8.70671" gradientUnits="userSpaceOnUse">
<stop stop-color="#4A5BDC"/>
<stop offset="1" stop-color="#1D2A8E"/>
</linearGradient>
</defs>
</svg>
