<svg width="30" height="30" viewBox="0 0 30 30" fill="none" xmlns="http://www.w3.org/2000/svg">
<path d="M8.64377 8.90625C7.42642 8.90689 6.23981 9.28857 5.25037 9.99774C4.26092 10.7069 3.51827 11.708 3.12658 12.8606H1.34814V16.6106H3.12658C3.57059 17.9184 4.46464 19.026 5.64931 19.7359C6.83399 20.4457 8.23228 20.7118 9.59488 20.4866C10.9575 20.2614 12.1958 19.5596 13.0891 18.5063C13.9824 17.453 14.4726 16.1167 14.4722 14.7356C14.4723 13.97 14.3216 13.2118 14.0286 12.5045C13.7357 11.7971 13.3062 11.1544 12.7648 10.613C12.2233 10.0717 11.5806 9.64232 10.8731 9.34946C10.1657 9.05661 9.40753 8.906 8.6419 8.90625H8.64377ZM25.9547 12.8625C25.0697 8.01281 20.836 4.33594 15.7331 4.33594V8.08594C17.4962 8.08842 19.1864 8.7899 20.4331 10.0366C21.6798 11.2833 22.3813 12.9735 22.3838 14.7366C22.3803 16.4992 21.6784 18.1886 20.4319 19.4348C19.1854 20.681 17.4958 21.3823 15.7331 21.3853V25.1372C20.835 25.1334 25.0706 21.4566 25.9547 16.6097H27.8906V12.8597H25.9547V12.8625Z" fill="black"/>
</svg>
