<svg width="24" height="24" viewBox="0 0 24 24" fill="none" xmlns="http://www.w3.org/2000/svg">
<path d="M5.35049 20.125C4.7271 20.125 4.12924 19.8773 3.68844 19.4365C3.24764 18.9957 3 18.3979 3 17.7745V14.4167C3 14.1495 3.10613 13.8933 3.29505 13.7043C3.48396 13.5154 3.74019 13.4093 4.00735 13.4093C4.27452 13.4093 4.53074 13.5154 4.71966 13.7043C4.90857 13.8933 5.01471 14.1495 5.01471 14.4167V17.7745C5.01471 17.9599 5.16514 18.1103 5.35049 18.1103H19.4534C19.5425 18.1103 19.6279 18.0749 19.6909 18.0119C19.7538 17.949 19.7892 17.8636 19.7892 17.7745V14.4167C19.7892 14.1495 19.8953 13.8933 20.0843 13.7043C20.2732 13.5154 20.5294 13.4093 20.7966 13.4093C21.0637 13.4093 21.32 13.5154 21.5089 13.7043C21.6978 13.8933 21.8039 14.1495 21.8039 14.4167V17.7745C21.8039 18.3979 21.5563 18.9957 21.1155 19.4365C20.6747 19.8773 20.0768 20.125 19.4534 20.125H5.35049Z" fill="url(#paint0_linear_118_317)"/>
<path d="M11.3946 11.6485V4.00735C11.3946 3.74019 11.5007 3.48396 11.6896 3.29505C11.8786 3.10613 12.1348 3 12.402 3C12.6691 3 12.9253 3.10613 13.1143 3.29505C13.3032 3.48396 13.4093 3.74019 13.4093 4.00735V11.6485L16.0553 9.00382C16.1488 8.91034 16.2597 8.83619 16.3819 8.78559C16.504 8.735 16.6349 8.70896 16.7671 8.70896C16.8994 8.70896 17.0303 8.735 17.1524 8.78559C17.2745 8.83619 17.3855 8.91034 17.479 9.00382C17.5725 9.09731 17.6466 9.20829 17.6972 9.33043C17.7478 9.45257 17.7739 9.58348 17.7739 9.71569C17.7739 9.84789 17.7478 9.9788 17.6972 10.1009C17.6466 10.2231 17.5725 10.3341 17.479 10.4275L13.1138 14.7927C12.9249 14.9814 12.6689 15.0873 12.402 15.0873C12.135 15.0873 11.879 14.9814 11.6901 14.7927L7.32489 10.4275C7.23141 10.3341 7.15725 10.2231 7.10666 10.1009C7.05607 9.9788 7.03003 9.84789 7.03003 9.71569C7.03003 9.58348 7.05607 9.45257 7.10666 9.33043C7.15725 9.20829 7.23141 9.09731 7.32489 9.00382C7.41838 8.91034 7.52936 8.83619 7.6515 8.78559C7.77364 8.735 7.90455 8.70896 8.03676 8.70896C8.16896 8.70896 8.29987 8.735 8.42201 8.78559C8.54415 8.83619 8.65514 8.91034 8.74862 9.00382L11.3946 11.6485Z" fill="url(#paint1_linear_118_317)"/>
<defs>
<linearGradient id="paint0_linear_118_317" x1="12.402" y1="13.4093" x2="12.402" y2="20.125" gradientUnits="userSpaceOnUse">
<stop stop-color="#4A5BDC"/>
<stop offset="1" stop-color="#1D2A8E"/>
</linearGradient>
<linearGradient id="paint1_linear_118_317" x1="12.402" y1="3" x2="12.402" y2="15.0873" gradientUnits="userSpaceOnUse">
<stop stop-color="#4A5BDC"/>
<stop offset="1" stop-color="#1D2A8E"/>
</linearGradient>
</defs>
</svg>
